<?xml version="1.0" encoding="iso-8859-1"?>
<!-- Generator: Adobe Illustrator 19.0.0, SVG Export Plug-In . SVG Version: 6.00 Build 0)  -->
<svg version="1.1" id="Layer_1" xmlns="http://www.w3.org/2000/svg" xmlns:xlink="http://www.w3.org/1999/xlink" x="0px" y="0px"
	 viewBox="0 0 512 512" style="enable-background:new 0 0 512 512;" xml:space="preserve">
<path style="fill:#5286FA;" d="M449.939,0H256H139.636C84.029,0,38.788,45.241,38.788,100.848v310.303
	C38.788,466.759,84.029,512,139.636,512H256h193.939c12.853,0,23.273-10.42,23.273-23.273V23.273C473.212,10.42,462.792,0,449.939,0
	z"/>
<g>
	<circle style="fill:#FFFFFF;" cx="256" cy="201.697" r="69.818"/>
	<path style="fill:#FFFFFF;" d="M256,271.515c-59.982,0-108.606,48.621-108.606,108.606H256h108.606
		C364.606,320.137,315.982,271.515,256,271.515z"/>
</g>
<path style="fill:#3D6DEB;" d="M139.636,512H256V380.121H147.394c0-59.985,48.624-108.606,108.606-108.606
	c-38.558,0-69.818-31.26-69.818-69.818c0-38.561,31.26-69.818,69.818-69.818V0H139.636C84.029,0,38.788,45.241,38.788,100.848
	v310.303C38.788,466.759,84.029,512,139.636,512z"/>
<g>
</g>
<g>
</g>
<g>
</g>
<g>
</g>
<g>
</g>
<g>
</g>
<g>
</g>
<g>
</g>
<g>
</g>
<g>
</g>
<g>
</g>
<g>
</g>
<g>
</g>
<g>
</g>
<g>
</g>
</svg>
